<mxfile host="Electron" agent="Mozilla/5.0 (Macintosh; Intel Mac OS X 10_15_7) AppleWebKit/537.36 (KHTML, like Gecko) draw.io/27.0.5 Chrome/134.0.6998.205 Electron/35.3.0 Safari/537.36" version="27.0.5">
  <diagram name="Сторінка-1" id="_eEN4EX3UfYcgiEHpWO1">
    <mxGraphModel dx="743" dy="636" grid="1" gridSize="10" guides="1" tooltips="1" connect="1" arrows="1" fold="1" page="1" pageScale="1" pageWidth="827" pageHeight="1169" background="#FFFFFF" math="0" shadow="0">
      <root>
        <mxCell id="0" />
        <mxCell id="1" parent="0" />
        <mxCell id="09FXHkTCo6JHGrru7qtD-1" value="" style="rounded=0;whiteSpace=wrap;html=1;fillColor=#fff2cc;strokeColor=#d6b656;" vertex="1" parent="1">
          <mxGeometry x="250" y="295" width="400" height="620" as="geometry" />
        </mxCell>
        <mxCell id="09FXHkTCo6JHGrru7qtD-2" value="&lt;font style=&quot;color: rgb(0, 0, 0);&quot;&gt;STM32G431CBUx&lt;/font&gt;" style="text;html=1;align=center;verticalAlign=middle;whiteSpace=wrap;rounded=0;" vertex="1" parent="1">
          <mxGeometry x="566" y="885" width="60" height="30" as="geometry" />
        </mxCell>
        <mxCell id="09FXHkTCo6JHGrru7qtD-7" value="" style="rounded=0;whiteSpace=wrap;html=1;fillColor=none;strokeColor=#999999;dashed=1;" vertex="1" parent="1">
          <mxGeometry x="280" y="445" width="160" height="180" as="geometry" />
        </mxCell>
        <mxCell id="09FXHkTCo6JHGrru7qtD-4" value="" style="rounded=0;whiteSpace=wrap;html=1;fillColor=#f5f5f5;fontColor=#333333;strokeColor=#666666;" vertex="1" parent="1">
          <mxGeometry x="290" y="455" width="60" height="110" as="geometry" />
        </mxCell>
        <mxCell id="09FXHkTCo6JHGrru7qtD-5" value="" style="triangle;whiteSpace=wrap;html=1;fillColor=#f5f5f5;fontColor=#333333;strokeColor=#666666;" vertex="1" parent="1">
          <mxGeometry x="370" y="535" width="60" height="80" as="geometry" />
        </mxCell>
        <mxCell id="09FXHkTCo6JHGrru7qtD-8" value="&lt;font style=&quot;color: rgb(0, 0, 0);&quot;&gt;+&lt;/font&gt;" style="text;html=1;align=center;verticalAlign=middle;whiteSpace=wrap;rounded=0;" vertex="1" parent="1">
          <mxGeometry x="350" y="545" width="60" height="30" as="geometry" />
        </mxCell>
        <mxCell id="09FXHkTCo6JHGrru7qtD-6" value="&lt;font style=&quot;color: rgb(0, 0, 0);&quot;&gt;MULTIPLEXER&lt;/font&gt;" style="text;html=1;align=center;verticalAlign=middle;whiteSpace=wrap;rounded=0;rotation=-90;" vertex="1" parent="1">
          <mxGeometry x="290" y="495" width="60" height="30" as="geometry" />
        </mxCell>
        <mxCell id="09FXHkTCo6JHGrru7qtD-9" value="&lt;font style=&quot;color: rgb(0, 0, 0);&quot;&gt;-&lt;/font&gt;" style="text;html=1;align=center;verticalAlign=middle;whiteSpace=wrap;rounded=0;" vertex="1" parent="1">
          <mxGeometry x="350" y="575" width="60" height="30" as="geometry" />
        </mxCell>
        <mxCell id="09FXHkTCo6JHGrru7qtD-10" value="" style="endArrow=none;html=1;rounded=0;strokeColor=#000000;exitX=0.002;exitY=0.333;exitDx=0;exitDy=0;entryX=0;entryY=0.25;entryDx=0;entryDy=0;exitPerimeter=0;" edge="1" parent="1" source="09FXHkTCo6JHGrru7qtD-8" target="09FXHkTCo6JHGrru7qtD-5">
          <mxGeometry width="50" height="50" relative="1" as="geometry">
            <mxPoint x="500" y="545" as="sourcePoint" />
            <mxPoint x="550" y="495" as="targetPoint" />
          </mxGeometry>
        </mxCell>
        <mxCell id="09FXHkTCo6JHGrru7qtD-15" value="" style="line;strokeWidth=1;html=1;fillColor=#000000;strokeColor=#000000;" vertex="1" parent="1">
          <mxGeometry x="520" y="570" width="180" height="10" as="geometry" />
        </mxCell>
        <mxCell id="09FXHkTCo6JHGrru7qtD-16" value="&lt;font style=&quot;color: rgb(0, 0, 0); font-weight: normal; font-size: 12px;&quot;&gt;PA2&lt;/font&gt;" style="text;strokeColor=none;fillColor=none;html=1;fontSize=24;fontStyle=1;verticalAlign=middle;align=center;" vertex="1" parent="1">
          <mxGeometry x="650" y="550" width="40" height="20" as="geometry" />
        </mxCell>
        <mxCell id="09FXHkTCo6JHGrru7qtD-19" value="" style="line;strokeWidth=1;html=1;fillColor=#000000;strokeColor=#000000;" vertex="1" parent="1">
          <mxGeometry x="220" y="465" width="70" height="2" as="geometry" />
        </mxCell>
        <mxCell id="09FXHkTCo6JHGrru7qtD-20" value="" style="line;strokeWidth=1;html=1;fillColor=#000000;strokeColor=#000000;" vertex="1" parent="1">
          <mxGeometry x="70" y="525" width="220" height="2" as="geometry" />
        </mxCell>
        <mxCell id="09FXHkTCo6JHGrru7qtD-21" value="" style="line;strokeWidth=1;html=1;fillColor=#000000;strokeColor=#000000;" vertex="1" parent="1">
          <mxGeometry x="160" y="495" width="130" height="2" as="geometry" />
        </mxCell>
        <mxCell id="09FXHkTCo6JHGrru7qtD-22" value="" style="line;strokeWidth=1;html=1;fillColor=#000000;strokeColor=#000000;" vertex="1" parent="1">
          <mxGeometry x="260" y="554" width="30" height="2" as="geometry" />
        </mxCell>
        <mxCell id="09FXHkTCo6JHGrru7qtD-24" value="&lt;font style=&quot;color: rgb(0, 0, 0); font-weight: normal; font-size: 12px;&quot;&gt;PA3&lt;/font&gt;" style="text;strokeColor=none;fillColor=none;html=1;fontSize=24;fontStyle=1;verticalAlign=middle;align=center;" vertex="1" parent="1">
          <mxGeometry x="210" y="445" width="40" height="20" as="geometry" />
        </mxCell>
        <mxCell id="09FXHkTCo6JHGrru7qtD-25" value="&lt;font style=&quot;color: rgb(0, 0, 0); font-weight: normal; font-size: 12px;&quot;&gt;PA1&lt;/font&gt;" style="text;strokeColor=none;fillColor=none;html=1;fontSize=24;fontStyle=1;verticalAlign=middle;align=center;" vertex="1" parent="1">
          <mxGeometry x="210" y="475" width="40" height="20" as="geometry" />
        </mxCell>
        <mxCell id="09FXHkTCo6JHGrru7qtD-26" value="&lt;font style=&quot;color: rgb(0, 0, 0); font-weight: normal; font-size: 12px;&quot;&gt;PA7&lt;/font&gt;" style="text;strokeColor=none;fillColor=none;html=1;fontSize=24;fontStyle=1;verticalAlign=middle;align=center;" vertex="1" parent="1">
          <mxGeometry x="210" y="505" width="40" height="20" as="geometry" />
        </mxCell>
        <mxCell id="09FXHkTCo6JHGrru7qtD-29" value="DAC3" style="rounded=0;whiteSpace=wrap;html=1;fillColor=#f5f5f5;fontColor=#333333;strokeColor=#666666;" vertex="1" parent="1">
          <mxGeometry x="280" y="655" width="80" height="60" as="geometry" />
        </mxCell>
        <mxCell id="09FXHkTCo6JHGrru7qtD-30" style="edgeStyle=orthogonalEdgeStyle;rounded=0;orthogonalLoop=1;jettySize=auto;html=1;exitX=0;exitY=0.25;exitDx=0;exitDy=0;entryX=1;entryY=0.5;entryDx=0;entryDy=0;entryPerimeter=0;strokeColor=#000000;" edge="1" parent="1" source="09FXHkTCo6JHGrru7qtD-29" target="09FXHkTCo6JHGrru7qtD-22">
          <mxGeometry relative="1" as="geometry">
            <Array as="points">
              <mxPoint x="260" y="670" />
              <mxPoint x="260" y="555" />
            </Array>
          </mxGeometry>
        </mxCell>
        <mxCell id="09FXHkTCo6JHGrru7qtD-31" value="&lt;font color=&quot;#000000&quot;&gt;&lt;span style=&quot;font-size: 12px; font-weight: 400;&quot;&gt;internal&lt;/span&gt;&lt;/font&gt;" style="text;strokeColor=none;fillColor=none;html=1;fontSize=24;fontStyle=1;verticalAlign=middle;align=center;rotation=270;" vertex="1" parent="1">
          <mxGeometry x="245" y="600" width="35" height="30" as="geometry" />
        </mxCell>
        <mxCell id="09FXHkTCo6JHGrru7qtD-33" style="edgeStyle=orthogonalEdgeStyle;rounded=0;orthogonalLoop=1;jettySize=auto;html=1;strokeColor=#000000;entryX=1;entryY=0.5;entryDx=0;entryDy=0;entryPerimeter=0;endArrow=none;startFill=0;" edge="1" parent="1" source="09FXHkTCo6JHGrru7qtD-70" target="09FXHkTCo6JHGrru7qtD-19">
          <mxGeometry relative="1" as="geometry">
            <mxPoint x="200" y="455" as="targetPoint" />
            <Array as="points">
              <mxPoint x="150" y="365" />
              <mxPoint x="150" y="466" />
            </Array>
          </mxGeometry>
        </mxCell>
        <mxCell id="09FXHkTCo6JHGrru7qtD-82" style="edgeStyle=orthogonalEdgeStyle;rounded=0;orthogonalLoop=1;jettySize=auto;html=1;entryX=0;entryY=0.5;entryDx=0;entryDy=0;endArrow=none;startFill=1;startArrow=classic;strokeColor=#000000;" edge="1" parent="1" source="09FXHkTCo6JHGrru7qtD-32" target="09FXHkTCo6JHGrru7qtD-76">
          <mxGeometry relative="1" as="geometry" />
        </mxCell>
        <mxCell id="09FXHkTCo6JHGrru7qtD-32" value="TIM17" style="rounded=0;whiteSpace=wrap;html=1;fillColor=#f5f5f5;fontColor=#333333;strokeColor=#666666;" vertex="1" parent="1">
          <mxGeometry x="285" y="335" width="80" height="60" as="geometry" />
        </mxCell>
        <mxCell id="09FXHkTCo6JHGrru7qtD-40" style="edgeStyle=orthogonalEdgeStyle;rounded=0;orthogonalLoop=1;jettySize=auto;html=1;exitX=0.5;exitY=0;exitDx=0;exitDy=0;strokeColor=#000000;endArrow=none;startFill=0;" edge="1" parent="1" source="09FXHkTCo6JHGrru7qtD-34">
          <mxGeometry relative="1" as="geometry">
            <mxPoint x="170" y="365.14285714285717" as="targetPoint" />
          </mxGeometry>
        </mxCell>
        <mxCell id="09FXHkTCo6JHGrru7qtD-42" style="edgeStyle=orthogonalEdgeStyle;rounded=0;orthogonalLoop=1;jettySize=auto;html=1;exitX=0.5;exitY=1;exitDx=0;exitDy=0;strokeColor=#000000;endArrow=none;startFill=0;entryX=0.498;entryY=0.429;entryDx=0;entryDy=0;entryPerimeter=0;" edge="1" parent="1" source="09FXHkTCo6JHGrru7qtD-34" target="09FXHkTCo6JHGrru7qtD-43">
          <mxGeometry relative="1" as="geometry">
            <mxPoint x="70" y="384" as="targetPoint" />
            <Array as="points">
              <mxPoint x="70" y="365" />
              <mxPoint x="70" y="384" />
              <mxPoint x="70" y="384" />
            </Array>
          </mxGeometry>
        </mxCell>
        <mxCell id="09FXHkTCo6JHGrru7qtD-34" value="" style="rounded=0;whiteSpace=wrap;html=1;fillColor=#4D4D4D;direction=south;strokeColor=#000000;" vertex="1" parent="1">
          <mxGeometry x="90" y="355" width="40" height="20" as="geometry" />
        </mxCell>
        <mxCell id="09FXHkTCo6JHGrru7qtD-35" value="&lt;font style=&quot;color: rgb(0, 0, 0); font-weight: normal; font-size: 12px;&quot;&gt;1K&lt;/font&gt;" style="text;strokeColor=none;fillColor=none;html=1;fontSize=24;fontStyle=1;verticalAlign=middle;align=center;rotation=0;" vertex="1" parent="1">
          <mxGeometry x="90" y="335" width="40" height="20" as="geometry" />
        </mxCell>
        <mxCell id="09FXHkTCo6JHGrru7qtD-38" value="" style="edgeStyle=orthogonalEdgeStyle;rounded=0;orthogonalLoop=1;jettySize=auto;html=1;strokeColor=#000000;entryX=1;entryY=0.5;entryDx=0;entryDy=0;entryPerimeter=0;endArrow=none;startFill=0;" edge="1" parent="1" source="09FXHkTCo6JHGrru7qtD-32" target="09FXHkTCo6JHGrru7qtD-36">
          <mxGeometry relative="1" as="geometry">
            <mxPoint x="290" y="466" as="targetPoint" />
            <mxPoint x="285" y="365" as="sourcePoint" />
            <Array as="points">
              <mxPoint x="210" y="365" />
            </Array>
          </mxGeometry>
        </mxCell>
        <mxCell id="09FXHkTCo6JHGrru7qtD-36" value="" style="rounded=0;whiteSpace=wrap;html=1;fillColor=#4D4D4D;direction=south;strokeColor=#000000;" vertex="1" parent="1">
          <mxGeometry x="170" y="355" width="40" height="20" as="geometry" />
        </mxCell>
        <mxCell id="09FXHkTCo6JHGrru7qtD-39" value="&lt;font style=&quot;color: rgb(0, 0, 0); font-weight: normal; font-size: 12px;&quot;&gt;10K&lt;/font&gt;" style="text;strokeColor=none;fillColor=none;html=1;fontSize=24;fontStyle=1;verticalAlign=middle;align=center;rotation=0;" vertex="1" parent="1">
          <mxGeometry x="170" y="335" width="40" height="20" as="geometry" />
        </mxCell>
        <mxCell id="09FXHkTCo6JHGrru7qtD-47" value="" style="rounded=0;whiteSpace=wrap;html=1;fillColor=none;strokeColor=#999999;dashed=1;" vertex="1" parent="1">
          <mxGeometry x="270" y="305" width="110" height="110" as="geometry" />
        </mxCell>
        <mxCell id="09FXHkTCo6JHGrru7qtD-43" value="" style="line;strokeWidth=1;html=1;fillColor=#000000;strokeColor=#000000;" vertex="1" parent="1">
          <mxGeometry x="50" y="385" width="40" height="2" as="geometry" />
        </mxCell>
        <mxCell id="09FXHkTCo6JHGrru7qtD-44" value="" style="line;strokeWidth=1;html=1;fillColor=#000000;strokeColor=#000000;" vertex="1" parent="1">
          <mxGeometry x="55" y="395" width="30" height="2" as="geometry" />
        </mxCell>
        <mxCell id="09FXHkTCo6JHGrru7qtD-45" value="" style="line;strokeWidth=1;html=1;fillColor=#000000;strokeColor=#000000;" vertex="1" parent="1">
          <mxGeometry x="62.5" y="405" width="15" height="2" as="geometry" />
        </mxCell>
        <mxCell id="09FXHkTCo6JHGrru7qtD-46" value="&lt;font style=&quot;color: rgb(0, 0, 0); font-weight: normal; font-size: 12px;&quot;&gt;PB5&lt;/font&gt;" style="text;strokeColor=none;fillColor=none;html=1;fontSize=24;fontStyle=1;verticalAlign=middle;align=center;" vertex="1" parent="1">
          <mxGeometry x="210" y="345" width="40" height="20" as="geometry" />
        </mxCell>
        <mxCell id="09FXHkTCo6JHGrru7qtD-48" value="&lt;font style=&quot;color: rgb(0, 0, 0); font-weight: normal; font-size: 12px;&quot;&gt;Video generator&lt;/font&gt;" style="text;strokeColor=none;fillColor=none;html=1;fontSize=24;fontStyle=1;verticalAlign=middle;align=center;" vertex="1" parent="1">
          <mxGeometry x="300" y="305" width="40" height="20" as="geometry" />
        </mxCell>
        <mxCell id="09FXHkTCo6JHGrru7qtD-50" value="&lt;font style=&quot;color: rgb(0, 0, 0); font-weight: normal; font-size: 6px;&quot;&gt;CH1&lt;/font&gt;" style="text;strokeColor=none;fillColor=none;html=1;fontSize=24;fontStyle=1;verticalAlign=middle;align=center;" vertex="1" parent="1">
          <mxGeometry x="260" y="649" width="20" height="20" as="geometry" />
        </mxCell>
        <mxCell id="09FXHkTCo6JHGrru7qtD-56" value="&lt;div&gt;&lt;font style=&quot;font-size: 9px;&quot; color=&quot;#000000&quot;&gt;&lt;span style=&quot;font-weight: 400;&quot;&gt;Pixel brightness control&lt;/span&gt;&lt;/font&gt;&lt;/div&gt;" style="text;strokeColor=none;fillColor=none;html=1;fontSize=24;fontStyle=1;verticalAlign=middle;align=center;rotation=0;" vertex="1" parent="1">
          <mxGeometry x="259" y="633" width="110" height="18" as="geometry" />
        </mxCell>
        <mxCell id="09FXHkTCo6JHGrru7qtD-58" value="&lt;font style=&quot;color: rgb(0, 0, 0); font-weight: normal; font-size: 12px;&quot;&gt;VIDEO IN&lt;/font&gt;" style="text;strokeColor=none;fillColor=none;html=1;fontSize=24;fontStyle=1;verticalAlign=middle;align=center;" vertex="1" parent="1">
          <mxGeometry x="70" y="505" width="40" height="20" as="geometry" />
        </mxCell>
        <mxCell id="09FXHkTCo6JHGrru7qtD-67" style="edgeStyle=orthogonalEdgeStyle;rounded=0;orthogonalLoop=1;jettySize=auto;html=1;endArrow=none;startFill=0;strokeColor=#000000;exitX=0.5;exitY=0;exitDx=0;exitDy=0;" edge="1" parent="1" source="09FXHkTCo6JHGrru7qtD-60">
          <mxGeometry relative="1" as="geometry">
            <mxPoint x="150" y="603" as="targetPoint" />
            <mxPoint x="149.9999999999999" y="588" as="sourcePoint" />
          </mxGeometry>
        </mxCell>
        <mxCell id="09FXHkTCo6JHGrru7qtD-68" style="edgeStyle=orthogonalEdgeStyle;rounded=0;orthogonalLoop=1;jettySize=auto;html=1;strokeColor=#000000;endArrow=none;startFill=0;" edge="1" parent="1" source="09FXHkTCo6JHGrru7qtD-60">
          <mxGeometry relative="1" as="geometry">
            <mxPoint x="150" y="525" as="targetPoint" />
            <Array as="points">
              <mxPoint x="150" y="525" />
              <mxPoint x="150" y="525" />
            </Array>
          </mxGeometry>
        </mxCell>
        <mxCell id="09FXHkTCo6JHGrru7qtD-60" value="" style="rounded=0;whiteSpace=wrap;html=1;fillColor=#4D4D4D;direction=west;strokeColor=#000000;" vertex="1" parent="1">
          <mxGeometry x="140" y="540" width="20" height="40" as="geometry" />
        </mxCell>
        <mxCell id="09FXHkTCo6JHGrru7qtD-61" value="&lt;font style=&quot;color: rgb(0, 0, 0); font-weight: normal; font-size: 12px;&quot;&gt;75R&lt;/font&gt;" style="text;strokeColor=none;fillColor=none;html=1;fontSize=24;fontStyle=1;verticalAlign=middle;align=center;rotation=270;" vertex="1" parent="1">
          <mxGeometry x="110" y="550" width="40" height="20" as="geometry" />
        </mxCell>
        <mxCell id="09FXHkTCo6JHGrru7qtD-62" value="" style="line;strokeWidth=1;html=1;fillColor=#000000;strokeColor=#000000;" vertex="1" parent="1">
          <mxGeometry x="130" y="603" width="40" height="2" as="geometry" />
        </mxCell>
        <mxCell id="09FXHkTCo6JHGrru7qtD-63" value="" style="line;strokeWidth=1;html=1;fillColor=#000000;strokeColor=#000000;" vertex="1" parent="1">
          <mxGeometry x="135" y="613" width="30" height="2" as="geometry" />
        </mxCell>
        <mxCell id="09FXHkTCo6JHGrru7qtD-64" value="" style="line;strokeWidth=1;html=1;fillColor=#000000;strokeColor=#000000;" vertex="1" parent="1">
          <mxGeometry x="142.5" y="623" width="15" height="2" as="geometry" />
        </mxCell>
        <mxCell id="09FXHkTCo6JHGrru7qtD-69" value="" style="shape=waypoint;sketch=0;size=6;pointerEvents=1;points=[];fillColor=none;resizable=0;rotatable=0;perimeter=centerPerimeter;snapToPoint=1;fontColor=#000000;strokeColor=#000000;" vertex="1" parent="1">
          <mxGeometry x="140" y="515" width="20" height="20" as="geometry" />
        </mxCell>
        <mxCell id="09FXHkTCo6JHGrru7qtD-70" value="" style="shape=waypoint;sketch=0;size=6;pointerEvents=1;points=[];fillColor=none;resizable=0;rotatable=0;perimeter=centerPerimeter;snapToPoint=1;fontColor=#000000;strokeColor=#000000;" vertex="1" parent="1">
          <mxGeometry x="140" y="355" width="20" height="20" as="geometry" />
        </mxCell>
        <mxCell id="09FXHkTCo6JHGrru7qtD-72" value="&lt;font style=&quot;color: rgb(0, 0, 0); font-weight: normal; font-size: 12px;&quot;&gt;VIDEO OUT&lt;/font&gt;" style="text;strokeColor=none;fillColor=none;html=1;fontSize=24;fontStyle=1;verticalAlign=middle;align=center;" vertex="1" parent="1">
          <mxGeometry x="680" y="575" width="40" height="20" as="geometry" />
        </mxCell>
        <mxCell id="09FXHkTCo6JHGrru7qtD-75" value="" style="rounded=0;whiteSpace=wrap;html=1;fillColor=none;strokeColor=#999999;dashed=1;" vertex="1" parent="1">
          <mxGeometry x="386" y="305" width="116" height="110" as="geometry" />
        </mxCell>
        <mxCell id="09FXHkTCo6JHGrru7qtD-76" value="TIM4" style="rounded=0;whiteSpace=wrap;html=1;fillColor=#f5f5f5;fontColor=#333333;strokeColor=#666666;" vertex="1" parent="1">
          <mxGeometry x="401" y="335" width="80" height="60" as="geometry" />
        </mxCell>
        <mxCell id="09FXHkTCo6JHGrru7qtD-78" value="&lt;font color=&quot;#000000&quot;&gt;&lt;span style=&quot;font-size: 12px; font-weight: 400;&quot;&gt;Delay for&lt;/span&gt;&lt;/font&gt;" style="text;strokeColor=none;fillColor=none;html=1;fontSize=24;fontStyle=1;verticalAlign=middle;align=center;rotation=0;" vertex="1" parent="1">
          <mxGeometry x="384" y="295" width="110" height="25" as="geometry" />
        </mxCell>
        <mxCell id="09FXHkTCo6JHGrru7qtD-79" value="&lt;font color=&quot;#000000&quot;&gt;&lt;span style=&quot;font-size: 12px; font-weight: 400;&quot;&gt;start video generator&lt;/span&gt;&lt;/font&gt;" style="text;strokeColor=none;fillColor=none;html=1;fontSize=24;fontStyle=1;verticalAlign=middle;align=center;rotation=0;" vertex="1" parent="1">
          <mxGeometry x="389" y="305" width="110" height="25" as="geometry" />
        </mxCell>
        <mxCell id="09FXHkTCo6JHGrru7qtD-101" style="edgeStyle=orthogonalEdgeStyle;rounded=0;orthogonalLoop=1;jettySize=auto;html=1;exitX=0.56;exitY=-0.007;exitDx=0;exitDy=0;strokeColor=#000000;endArrow=none;startFill=0;entryX=0.407;entryY=0.182;entryDx=0;entryDy=0;entryPerimeter=0;exitPerimeter=0;" edge="1" parent="1" source="09FXHkTCo6JHGrru7qtD-84" target="09FXHkTCo6JHGrru7qtD-70">
          <mxGeometry relative="1" as="geometry">
            <mxPoint x="160" y="265" as="targetPoint" />
            <Array as="points">
              <mxPoint x="579" y="255" />
              <mxPoint x="150" y="255" />
            </Array>
          </mxGeometry>
        </mxCell>
        <mxCell id="09FXHkTCo6JHGrru7qtD-83" value="" style="rounded=0;whiteSpace=wrap;html=1;fillColor=none;strokeColor=#999999;dashed=1;" vertex="1" parent="1">
          <mxGeometry x="521" y="305" width="116" height="220" as="geometry" />
        </mxCell>
        <mxCell id="09FXHkTCo6JHGrru7qtD-138" style="edgeStyle=orthogonalEdgeStyle;rounded=0;orthogonalLoop=1;jettySize=auto;html=1;exitX=1;exitY=0.5;exitDx=0;exitDy=0;entryX=1;entryY=0.5;entryDx=0;entryDy=0;strokeColor=#000000;" edge="1" parent="1" source="09FXHkTCo6JHGrru7qtD-84" target="09FXHkTCo6JHGrru7qtD-137">
          <mxGeometry relative="1" as="geometry">
            <Array as="points">
              <mxPoint x="630" y="345" />
              <mxPoint x="630" y="485" />
            </Array>
          </mxGeometry>
        </mxCell>
        <mxCell id="09FXHkTCo6JHGrru7qtD-84" value="COMP4" style="rounded=0;whiteSpace=wrap;html=1;fillColor=#f5f5f5;fontColor=#333333;strokeColor=#666666;" vertex="1" parent="1">
          <mxGeometry x="534" y="315" width="80" height="60" as="geometry" />
        </mxCell>
        <mxCell id="09FXHkTCo6JHGrru7qtD-87" value="" style="rounded=0;whiteSpace=wrap;html=1;fillColor=none;strokeColor=#999999;dashed=1;" vertex="1" parent="1">
          <mxGeometry x="262" y="725" width="168" height="180" as="geometry" />
        </mxCell>
        <mxCell id="09FXHkTCo6JHGrru7qtD-90" style="edgeStyle=orthogonalEdgeStyle;rounded=0;orthogonalLoop=1;jettySize=auto;html=1;exitX=0;exitY=0.5;exitDx=0;exitDy=0;strokeColor=#000000;endArrow=none;startFill=0;entryX=0.541;entryY=1.111;entryDx=0;entryDy=0;entryPerimeter=0;" edge="1" parent="1">
          <mxGeometry relative="1" as="geometry">
            <mxPoint x="189.01999999999998" y="525.002" as="targetPoint" />
            <mxPoint x="280" y="782.7799999999999" as="sourcePoint" />
          </mxGeometry>
        </mxCell>
        <mxCell id="09FXHkTCo6JHGrru7qtD-135" style="edgeStyle=orthogonalEdgeStyle;rounded=0;orthogonalLoop=1;jettySize=auto;html=1;exitX=0.25;exitY=1;exitDx=0;exitDy=0;entryX=0.25;entryY=0;entryDx=0;entryDy=0;strokeColor=#000000;" edge="1" parent="1" source="09FXHkTCo6JHGrru7qtD-88" target="09FXHkTCo6JHGrru7qtD-133">
          <mxGeometry relative="1" as="geometry" />
        </mxCell>
        <mxCell id="09FXHkTCo6JHGrru7qtD-88" value="COMP3" style="rounded=0;whiteSpace=wrap;html=1;fillColor=#f5f5f5;fontColor=#333333;strokeColor=#666666;" vertex="1" parent="1">
          <mxGeometry x="280" y="755" width="80" height="60" as="geometry" />
        </mxCell>
        <mxCell id="09FXHkTCo6JHGrru7qtD-89" value="&lt;font color=&quot;#000000&quot;&gt;&lt;span style=&quot;font-size: 12px; font-weight: 400;&quot;&gt;Video signal pars&lt;/span&gt;&lt;/font&gt;" style="text;strokeColor=none;fillColor=none;html=1;fontSize=24;fontStyle=1;verticalAlign=middle;align=center;rotation=0;" vertex="1" parent="1">
          <mxGeometry x="265" y="722" width="110" height="25" as="geometry" />
        </mxCell>
        <mxCell id="09FXHkTCo6JHGrru7qtD-91" value="" style="shape=waypoint;sketch=0;size=6;pointerEvents=1;points=[];fillColor=none;resizable=0;rotatable=0;perimeter=centerPerimeter;snapToPoint=1;fontColor=#000000;strokeColor=#000000;" vertex="1" parent="1">
          <mxGeometry x="179" y="515" width="20" height="20" as="geometry" />
        </mxCell>
        <mxCell id="09FXHkTCo6JHGrru7qtD-94" value="" style="rounded=0;whiteSpace=wrap;html=1;fillColor=#4D4D4D;direction=west;strokeColor=#000000;" vertex="1" parent="1">
          <mxGeometry x="179" y="649" width="20" height="40" as="geometry" />
        </mxCell>
        <mxCell id="09FXHkTCo6JHGrru7qtD-97" value="&lt;font style=&quot;color: rgb(0, 0, 0); font-weight: normal; font-size: 12px;&quot;&gt;10K&lt;/font&gt;" style="text;strokeColor=none;fillColor=none;html=1;fontSize=24;fontStyle=1;verticalAlign=middle;align=center;rotation=270;" vertex="1" parent="1">
          <mxGeometry x="146.5" y="659" width="40" height="20" as="geometry" />
        </mxCell>
        <mxCell id="09FXHkTCo6JHGrru7qtD-98" value="&lt;font style=&quot;font-size: 8px;&quot; color=&quot;#000000&quot;&gt;&lt;span style=&quot;font-weight: 400;&quot;&gt;For new featurs&lt;/span&gt;&lt;/font&gt;" style="text;strokeColor=none;fillColor=none;html=1;fontSize=24;fontStyle=1;verticalAlign=middle;align=center;" vertex="1" parent="1">
          <mxGeometry x="169" y="475" width="40" height="20" as="geometry" />
        </mxCell>
        <mxCell id="09FXHkTCo6JHGrru7qtD-100" value="&lt;font style=&quot;color: rgb(0, 0, 0); font-weight: normal; font-size: 12px;&quot;&gt;PA0&lt;/font&gt;" style="text;strokeColor=none;fillColor=none;html=1;fontSize=24;fontStyle=1;verticalAlign=middle;align=center;" vertex="1" parent="1">
          <mxGeometry x="209" y="760" width="40" height="20" as="geometry" />
        </mxCell>
        <mxCell id="09FXHkTCo6JHGrru7qtD-102" value="&lt;font style=&quot;color: rgb(0, 0, 0); font-weight: normal; font-size: 12px;&quot;&gt;PB0&lt;/font&gt;" style="text;strokeColor=none;fillColor=none;html=1;fontSize=24;fontStyle=1;verticalAlign=middle;align=center;rotation=270;" vertex="1" parent="1">
          <mxGeometry x="545" y="265" width="40" height="20" as="geometry" />
        </mxCell>
        <mxCell id="09FXHkTCo6JHGrru7qtD-104" style="edgeStyle=orthogonalEdgeStyle;rounded=0;orthogonalLoop=1;jettySize=auto;html=1;exitX=0;exitY=0.5;exitDx=0;exitDy=0;entryX=1;entryY=0.5;entryDx=0;entryDy=0;endArrow=none;startFill=0;strokeColor=#000000;" edge="1" parent="1" source="09FXHkTCo6JHGrru7qtD-103" target="09FXHkTCo6JHGrru7qtD-88">
          <mxGeometry relative="1" as="geometry" />
        </mxCell>
        <mxCell id="09FXHkTCo6JHGrru7qtD-126" style="edgeStyle=orthogonalEdgeStyle;rounded=0;orthogonalLoop=1;jettySize=auto;html=1;entryX=0.149;entryY=0.985;entryDx=0;entryDy=0;strokeColor=#000000;exitX=0.5;exitY=1;exitDx=0;exitDy=0;entryPerimeter=0;" edge="1" parent="1" source="09FXHkTCo6JHGrru7qtD-88" target="09FXHkTCo6JHGrru7qtD-109">
          <mxGeometry relative="1" as="geometry">
            <Array as="points">
              <mxPoint x="320" y="825" />
              <mxPoint x="480" y="825" />
            </Array>
          </mxGeometry>
        </mxCell>
        <mxCell id="09FXHkTCo6JHGrru7qtD-103" value="vref&lt;br&gt;DAC1&lt;br&gt;CH 1" style="rounded=0;whiteSpace=wrap;html=1;fillColor=#f5f5f5;fontColor=#333333;strokeColor=#666666;" vertex="1" parent="1">
          <mxGeometry x="370" y="755" width="50" height="60" as="geometry" />
        </mxCell>
        <mxCell id="09FXHkTCo6JHGrru7qtD-107" style="edgeStyle=orthogonalEdgeStyle;rounded=0;orthogonalLoop=1;jettySize=auto;html=1;exitX=0.5;exitY=0;exitDx=0;exitDy=0;entryX=0.5;entryY=1;entryDx=0;entryDy=0;endArrow=none;startFill=0;strokeColor=#000000;" edge="1" parent="1" source="09FXHkTCo6JHGrru7qtD-106" target="09FXHkTCo6JHGrru7qtD-84">
          <mxGeometry relative="1" as="geometry" />
        </mxCell>
        <mxCell id="09FXHkTCo6JHGrru7qtD-128" style="edgeStyle=orthogonalEdgeStyle;rounded=0;orthogonalLoop=1;jettySize=auto;html=1;exitX=0;exitY=0.75;exitDx=0;exitDy=0;entryX=0.25;entryY=0;entryDx=0;entryDy=0;strokeColor=#4D4D4D;" edge="1" parent="1" source="09FXHkTCo6JHGrru7qtD-84" target="09FXHkTCo6JHGrru7qtD-109">
          <mxGeometry relative="1" as="geometry">
            <Array as="points">
              <mxPoint x="510" y="360" />
              <mxPoint x="510" y="460" />
              <mxPoint x="488" y="460" />
            </Array>
          </mxGeometry>
        </mxCell>
        <mxCell id="09FXHkTCo6JHGrru7qtD-106" value="vref&lt;br&gt;DAC1&lt;br&gt;CH 1" style="rounded=0;whiteSpace=wrap;html=1;fillColor=#f5f5f5;fontColor=#333333;strokeColor=#666666;" vertex="1" parent="1">
          <mxGeometry x="534" y="387" width="80" height="60" as="geometry" />
        </mxCell>
        <mxCell id="09FXHkTCo6JHGrru7qtD-108" value="" style="rounded=0;whiteSpace=wrap;html=1;fillColor=none;strokeColor=#999999;dashed=1;" vertex="1" parent="1">
          <mxGeometry x="450" y="643" width="130" height="100" as="geometry" />
        </mxCell>
        <mxCell id="09FXHkTCo6JHGrru7qtD-120" style="edgeStyle=orthogonalEdgeStyle;rounded=0;orthogonalLoop=1;jettySize=auto;html=1;exitX=0;exitY=0.5;exitDx=0;exitDy=0;entryX=1;entryY=0.5;entryDx=0;entryDy=0;strokeColor=#000000;" edge="1" parent="1" source="09FXHkTCo6JHGrru7qtD-109" target="09FXHkTCo6JHGrru7qtD-114">
          <mxGeometry relative="1" as="geometry">
            <Array as="points">
              <mxPoint x="468" y="700" />
            </Array>
          </mxGeometry>
        </mxCell>
        <mxCell id="09FXHkTCo6JHGrru7qtD-122" style="edgeStyle=orthogonalEdgeStyle;rounded=0;orthogonalLoop=1;jettySize=auto;html=1;exitX=0;exitY=0.25;exitDx=0;exitDy=0;entryX=0.998;entryY=0.617;entryDx=0;entryDy=0;strokeColor=#000000;entryPerimeter=0;" edge="1" parent="1" target="09FXHkTCo6JHGrru7qtD-121">
          <mxGeometry relative="1" as="geometry">
            <mxPoint x="468" y="662.5" as="sourcePoint" />
            <mxPoint x="439" y="659" as="targetPoint" />
          </mxGeometry>
        </mxCell>
        <mxCell id="09FXHkTCo6JHGrru7qtD-109" value="TIM1" style="rounded=0;whiteSpace=wrap;html=1;fillColor=#f5f5f5;fontColor=#333333;strokeColor=#666666;" vertex="1" parent="1">
          <mxGeometry x="468" y="655" width="80" height="60" as="geometry" />
        </mxCell>
        <mxCell id="09FXHkTCo6JHGrru7qtD-113" value="&lt;div&gt;&lt;font style=&quot;font-size: 8px;&quot; color=&quot;#000000&quot;&gt;&lt;span style=&quot;font-weight: 400;&quot;&gt;Drawing pixels&lt;/span&gt;&lt;/font&gt;&lt;/div&gt;" style="text;strokeColor=none;fillColor=none;html=1;fontSize=24;fontStyle=1;verticalAlign=middle;align=center;" vertex="1" parent="1">
          <mxGeometry x="462" y="707" width="116" height="20" as="geometry" />
        </mxCell>
        <mxCell id="09FXHkTCo6JHGrru7qtD-119" style="edgeStyle=orthogonalEdgeStyle;rounded=0;orthogonalLoop=1;jettySize=auto;html=1;exitX=0;exitY=0.5;exitDx=0;exitDy=0;strokeColor=#000000;" edge="1" parent="1" source="09FXHkTCo6JHGrru7qtD-114">
          <mxGeometry relative="1" as="geometry">
            <mxPoint x="360" y="700" as="targetPoint" />
          </mxGeometry>
        </mxCell>
        <mxCell id="09FXHkTCo6JHGrru7qtD-114" value="DMA 1&lt;br&gt;CH 2" style="rounded=0;whiteSpace=wrap;html=1;fillColor=#f5f5f5;fontColor=#333333;strokeColor=#666666;" vertex="1" parent="1">
          <mxGeometry x="379" y="685" width="60" height="30" as="geometry" />
        </mxCell>
        <mxCell id="09FXHkTCo6JHGrru7qtD-125" style="edgeStyle=orthogonalEdgeStyle;rounded=0;orthogonalLoop=1;jettySize=auto;html=1;entryX=0.5;entryY=1;entryDx=0;entryDy=0;strokeColor=#000000;" edge="1" parent="1" source="09FXHkTCo6JHGrru7qtD-121" target="09FXHkTCo6JHGrru7qtD-4">
          <mxGeometry relative="1" as="geometry">
            <Array as="points">
              <mxPoint x="370" y="659" />
              <mxPoint x="370" y="635" />
              <mxPoint x="320" y="635" />
            </Array>
          </mxGeometry>
        </mxCell>
        <mxCell id="09FXHkTCo6JHGrru7qtD-121" value="DMA 1&lt;br&gt;CH 1" style="rounded=0;whiteSpace=wrap;html=1;fillColor=#f5f5f5;fontColor=#333333;strokeColor=#666666;" vertex="1" parent="1">
          <mxGeometry x="379" y="644" width="60" height="30" as="geometry" />
        </mxCell>
        <mxCell id="09FXHkTCo6JHGrru7qtD-127" value="&lt;font style=&quot;font-size: 8px;&quot; color=&quot;#000000&quot;&gt;&lt;span style=&quot;font-weight: 400;&quot;&gt;Sync pixel draw&lt;/span&gt;&lt;/font&gt;" style="text;strokeColor=none;fillColor=none;html=1;fontSize=24;fontStyle=1;verticalAlign=middle;align=center;rotation=270;" vertex="1" parent="1">
          <mxGeometry x="435" y="762" width="66" height="28" as="geometry" />
        </mxCell>
        <mxCell id="09FXHkTCo6JHGrru7qtD-130" value="&lt;font style=&quot;font-size: 8px;&quot; color=&quot;#000000&quot;&gt;&lt;span style=&quot;font-weight: 400;&quot;&gt;Sync pixel draw&lt;/span&gt;&lt;/font&gt;" style="text;strokeColor=none;fillColor=none;html=1;fontSize=24;fontStyle=1;verticalAlign=middle;align=center;rotation=270;" vertex="1" parent="1">
          <mxGeometry x="468" y="598" width="20" height="20" as="geometry" />
        </mxCell>
        <mxCell id="09FXHkTCo6JHGrru7qtD-146" style="edgeStyle=orthogonalEdgeStyle;rounded=0;orthogonalLoop=1;jettySize=auto;html=1;exitX=1;exitY=0.5;exitDx=0;exitDy=0;strokeColor=#000000;" edge="1" parent="1" source="09FXHkTCo6JHGrru7qtD-133">
          <mxGeometry relative="1" as="geometry">
            <mxPoint x="549" y="710" as="targetPoint" />
            <Array as="points">
              <mxPoint x="570" y="860" />
              <mxPoint x="570" y="710" />
              <mxPoint x="549" y="710" />
            </Array>
          </mxGeometry>
        </mxCell>
        <mxCell id="09FXHkTCo6JHGrru7qtD-133" value="TIM2" style="rounded=0;whiteSpace=wrap;html=1;fillColor=#f5f5f5;fontColor=#333333;strokeColor=#666666;" vertex="1" parent="1">
          <mxGeometry x="280" y="835" width="80" height="50" as="geometry" />
        </mxCell>
        <mxCell id="09FXHkTCo6JHGrru7qtD-137" value="TIM3" style="rounded=0;whiteSpace=wrap;html=1;fillColor=#f5f5f5;fontColor=#333333;strokeColor=#666666;" vertex="1" parent="1">
          <mxGeometry x="534" y="460" width="80" height="50" as="geometry" />
        </mxCell>
        <mxCell id="09FXHkTCo6JHGrru7qtD-139" value="&lt;div&gt;&lt;font style=&quot;font-size: 9px;&quot; color=&quot;#000000&quot;&gt;&lt;span style=&quot;font-weight: 400;&quot;&gt;Detect start draw line&lt;/span&gt;&lt;/font&gt;&lt;/div&gt;" style="text;strokeColor=none;fillColor=none;html=1;fontSize=24;fontStyle=1;verticalAlign=middle;align=center;rotation=0;" vertex="1" parent="1">
          <mxGeometry x="268" y="879" width="110" height="18" as="geometry" />
        </mxCell>
        <mxCell id="09FXHkTCo6JHGrru7qtD-140" value="&lt;div&gt;&lt;font style=&quot;font-size: 9px;&quot; color=&quot;#000000&quot;&gt;&lt;span style=&quot;font-weight: 400;&quot;&gt;Detect start draw line&lt;/span&gt;&lt;/font&gt;&lt;/div&gt;" style="text;strokeColor=none;fillColor=none;html=1;fontSize=24;fontStyle=1;verticalAlign=middle;align=center;rotation=0;" vertex="1" parent="1">
          <mxGeometry x="521" y="503" width="110" height="18" as="geometry" />
        </mxCell>
        <mxCell id="09FXHkTCo6JHGrru7qtD-142" value="&lt;div&gt;&lt;font style=&quot;font-size: 8px;&quot; color=&quot;#000000&quot;&gt;&lt;span style=&quot;font-weight: 400;&quot;&gt;in current line line&lt;/span&gt;&lt;/font&gt;&lt;/div&gt;" style="text;strokeColor=none;fillColor=none;html=1;fontSize=24;fontStyle=1;verticalAlign=middle;align=center;" vertex="1" parent="1">
          <mxGeometry x="481" y="718" width="78" height="20" as="geometry" />
        </mxCell>
        <mxCell id="09FXHkTCo6JHGrru7qtD-143" value="&lt;div&gt;&lt;font style=&quot;font-size: 9px;&quot; color=&quot;#000000&quot;&gt;&lt;span style=&quot;font-weight: 400;&quot;&gt;reset cnt - TIM2&lt;/span&gt;&lt;/font&gt;&lt;/div&gt;" style="text;strokeColor=none;fillColor=none;html=1;fontSize=24;fontStyle=1;verticalAlign=middle;align=center;rotation=0;" vertex="1" parent="1">
          <mxGeometry x="396" y="390" width="110" height="18" as="geometry" />
        </mxCell>
        <mxCell id="09FXHkTCo6JHGrru7qtD-147" style="edgeStyle=orthogonalEdgeStyle;rounded=0;orthogonalLoop=1;jettySize=auto;html=1;exitX=0;exitY=0.5;exitDx=0;exitDy=0;entryX=0.581;entryY=0.04;entryDx=0;entryDy=0;entryPerimeter=0;strokeColor=#000000;" edge="1" parent="1" source="09FXHkTCo6JHGrru7qtD-137">
          <mxGeometry relative="1" as="geometry">
            <mxPoint x="522" y="482.6" as="sourcePoint" />
            <mxPoint x="502.48" y="655" as="targetPoint" />
          </mxGeometry>
        </mxCell>
        <mxCell id="09FXHkTCo6JHGrru7qtD-148" value="&lt;font style=&quot;font-size: 8px;&quot; color=&quot;#000000&quot;&gt;&lt;span style=&quot;font-weight: 400;&quot;&gt;Start draw line&lt;/span&gt;&lt;/font&gt;" style="text;strokeColor=none;fillColor=none;html=1;fontSize=24;fontStyle=1;verticalAlign=middle;align=center;rotation=0;" vertex="1" parent="1">
          <mxGeometry x="362" y="834" width="66" height="28" as="geometry" />
        </mxCell>
        <mxCell id="09FXHkTCo6JHGrru7qtD-149" value="&lt;font style=&quot;font-size: 8px;&quot; color=&quot;#000000&quot;&gt;&lt;span style=&quot;font-weight: 400;&quot;&gt;Start draw line&lt;/span&gt;&lt;/font&gt;" style="text;strokeColor=none;fillColor=none;html=1;fontSize=24;fontStyle=1;verticalAlign=middle;align=center;rotation=270;" vertex="1" parent="1">
          <mxGeometry x="458" y="512" width="66" height="28" as="geometry" />
        </mxCell>
        <mxCell id="09FXHkTCo6JHGrru7qtD-150" value="" style="line;strokeWidth=1;html=1;fillColor=#000000;strokeColor=#000000;" vertex="1" parent="1">
          <mxGeometry x="430" y="570" width="40" height="10" as="geometry" />
        </mxCell>
        <mxCell id="09FXHkTCo6JHGrru7qtD-151" value="" style="line;strokeWidth=1;html=1;fillColor=#000000;strokeColor=#000000;dashed=1;" vertex="1" parent="1">
          <mxGeometry x="470" y="570" width="50" height="10" as="geometry" />
        </mxCell>
        <mxCell id="09FXHkTCo6JHGrru7qtD-152" value="&lt;font style=&quot;color: rgb(0, 0, 0); font-weight: normal; font-size: 12px;&quot;&gt;OPAMP1&lt;/font&gt;" style="text;strokeColor=none;fillColor=none;html=1;fontSize=24;fontStyle=1;verticalAlign=middle;align=center;" vertex="1" parent="1">
          <mxGeometry x="374" y="501" width="40" height="20" as="geometry" />
        </mxCell>
      </root>
    </mxGraphModel>
  </diagram>
</mxfile>
